<mxfile host="app.diagrams.net" modified="2023-09-06T18:57:43.251Z" agent="Mozilla/5.0 (X11; Linux x86_64) AppleWebKit/537.36 (KHTML, like Gecko) Chrome/115.0.0.0 Safari/537.36" etag="oibXnrcilRrWkROm_Q6R" version="21.3.6" type="github">
  <diagram id="prtHgNgQTEPvFCAcTncT" name="Page-1">
    <mxGraphModel dx="1004" dy="584" grid="1" gridSize="10" guides="1" tooltips="1" connect="1" arrows="1" fold="1" page="1" pageScale="1" pageWidth="827" pageHeight="1169" math="0" shadow="0">
      <root>
        <mxCell id="0" />
        <mxCell id="1" parent="0" />
        <mxCell id="ufqmC2brcquOROog0l9P-3" value="Hertz" style="rounded=1;whiteSpace=wrap;html=1;fillColor=none;fontSize=23;" vertex="1" parent="1">
          <mxGeometry x="370" y="30" width="120" height="60" as="geometry" />
        </mxCell>
        <mxCell id="ufqmC2brcquOROog0l9P-4" value="" style="endArrow=none;html=1;rounded=0;entryX=0;entryY=0.5;entryDx=0;entryDy=0;fontSize=23;" edge="1" parent="1" target="ufqmC2brcquOROog0l9P-3">
          <mxGeometry width="50" height="50" relative="1" as="geometry">
            <mxPoint x="160" y="180" as="sourcePoint" />
            <mxPoint x="440" y="280" as="targetPoint" />
            <Array as="points">
              <mxPoint x="160" y="60" />
            </Array>
          </mxGeometry>
        </mxCell>
        <mxCell id="ufqmC2brcquOROog0l9P-6" value="HTTP框架" style="edgeLabel;html=1;align=center;verticalAlign=middle;resizable=0;points=[];fontSize=23;labelBackgroundColor=none;" vertex="1" connectable="0" parent="ufqmC2brcquOROog0l9P-4">
          <mxGeometry x="0.3738" y="-2" relative="1" as="geometry">
            <mxPoint x="13" y="-12" as="offset" />
          </mxGeometry>
        </mxCell>
        <mxCell id="ufqmC2brcquOROog0l9P-5" value="Kitex" style="rounded=1;whiteSpace=wrap;html=1;fillColor=none;fontSize=23;" vertex="1" parent="1">
          <mxGeometry x="370" y="130" width="120" height="60" as="geometry" />
        </mxCell>
        <mxCell id="ufqmC2brcquOROog0l9P-7" value="" style="endArrow=none;html=1;rounded=0;entryX=0;entryY=0.5;entryDx=0;entryDy=0;exitX=0.5;exitY=0;exitDx=0;exitDy=0;fontSize=23;" edge="1" parent="1" source="ufqmC2brcquOROog0l9P-13" target="ufqmC2brcquOROog0l9P-5">
          <mxGeometry width="50" height="50" relative="1" as="geometry">
            <mxPoint x="160" y="180" as="sourcePoint" />
            <mxPoint x="440" y="280" as="targetPoint" />
            <Array as="points">
              <mxPoint x="160" y="160" />
            </Array>
          </mxGeometry>
        </mxCell>
        <mxCell id="ufqmC2brcquOROog0l9P-8" value="RPC框架" style="edgeLabel;html=1;align=center;verticalAlign=middle;resizable=0;points=[];fontSize=23;labelBackgroundColor=none;" vertex="1" connectable="0" parent="ufqmC2brcquOROog0l9P-7">
          <mxGeometry x="0.0529" y="3" relative="1" as="geometry">
            <mxPoint x="21" y="-7" as="offset" />
          </mxGeometry>
        </mxCell>
        <mxCell id="ufqmC2brcquOROog0l9P-10" value="jaeger" style="rounded=1;whiteSpace=wrap;html=1;fillColor=none;fontSize=23;" vertex="1" parent="1">
          <mxGeometry x="370" y="240" width="120" height="60" as="geometry" />
        </mxCell>
        <mxCell id="ufqmC2brcquOROog0l9P-12" value="" style="endArrow=none;html=1;rounded=0;exitX=0;exitY=0.5;exitDx=0;exitDy=0;entryX=0.5;entryY=1;entryDx=0;entryDy=0;fontSize=23;" edge="1" parent="1" source="ufqmC2brcquOROog0l9P-10" target="ufqmC2brcquOROog0l9P-13">
          <mxGeometry width="50" height="50" relative="1" as="geometry">
            <mxPoint x="370" y="265" as="sourcePoint" />
            <mxPoint x="160" y="240" as="targetPoint" />
            <Array as="points">
              <mxPoint x="280" y="270" />
              <mxPoint x="200" y="270" />
              <mxPoint x="160" y="270" />
            </Array>
          </mxGeometry>
        </mxCell>
        <mxCell id="ufqmC2brcquOROog0l9P-14" value="链路追踪" style="edgeLabel;html=1;align=center;verticalAlign=middle;resizable=0;points=[];fontSize=23;labelBackgroundColor=none;" vertex="1" connectable="0" parent="ufqmC2brcquOROog0l9P-12">
          <mxGeometry x="0.29" y="1" relative="1" as="geometry">
            <mxPoint x="62" y="-11" as="offset" />
          </mxGeometry>
        </mxCell>
        <mxCell id="ufqmC2brcquOROog0l9P-13" value="技术选型" style="rounded=1;whiteSpace=wrap;html=1;fillColor=none;fontSize=23;" vertex="1" parent="1">
          <mxGeometry x="100" y="185" width="120" height="60" as="geometry" />
        </mxCell>
        <mxCell id="ufqmC2brcquOROog0l9P-15" value="consul" style="rounded=1;whiteSpace=wrap;html=1;fillColor=none;fontSize=23;" vertex="1" parent="1">
          <mxGeometry x="370" y="350" width="120" height="60" as="geometry" />
        </mxCell>
        <mxCell id="ufqmC2brcquOROog0l9P-16" value="" style="endArrow=none;html=1;rounded=0;exitX=0.5;exitY=1;exitDx=0;exitDy=0;entryX=0;entryY=0.5;entryDx=0;entryDy=0;fontSize=23;" edge="1" parent="1" source="ufqmC2brcquOROog0l9P-13" target="ufqmC2brcquOROog0l9P-15">
          <mxGeometry width="50" height="50" relative="1" as="geometry">
            <mxPoint x="390" y="320" as="sourcePoint" />
            <mxPoint x="440" y="270" as="targetPoint" />
            <Array as="points">
              <mxPoint x="160" y="380" />
            </Array>
          </mxGeometry>
        </mxCell>
        <mxCell id="ufqmC2brcquOROog0l9P-18" value="框架扩展" style="edgeLabel;html=1;align=center;verticalAlign=middle;resizable=0;points=[];fontSize=23;labelBackgroundColor=none;" vertex="1" connectable="0" parent="ufqmC2brcquOROog0l9P-16">
          <mxGeometry x="0.4704" y="-1" relative="1" as="geometry">
            <mxPoint y="-11" as="offset" />
          </mxGeometry>
        </mxCell>
      </root>
    </mxGraphModel>
  </diagram>
</mxfile>
